<?xml version="1.0" encoding="utf-8"?>
<svg xmlns="http://www.w3.org/2000/svg" xmlns:svg="http://www.w3.org/2000/svg" version="1.1" viewBox="0 0 1400 420">
	<title>The titlepage for the Standard Ebooks edition of Lyrical Ballads, by William Wordsworth and Samuel Taylor Coleridge</title>
	<g aria-label="LYRICAL BALLADS">
		<path d="M 251.25292,52.807016 H 233.66227 V 130 h 44.16375 v -15.4386 h -26.5731 z"/>
		<path d="m 275.74561,52.807016 28.44444,42.5731 V 130 H 321.7807 V 95.380116 l 28.44444,-42.5731 h -21.1462 L 312.98537,77.508771 296.89181,52.807016 Z"/>
		<path d="M 358.06286,52.807016 V 130 h 17.59065 V 99.497075 L 399.23245,130 h 22.36258 l -26.5731,-31.906433 c 9.45029,-2.994152 15.81286,-10.760234 15.81286,-22.362574 0,-15.157895 -10.8538,-22.923977 -25.16959,-22.923977 z m 17.59065,34.245615 V 66.842104 h 2.05848 c 6.64327,0 14.59649,0.467836 14.59649,10.105263 0,9.637428 -7.95322,10.105264 -14.59649,10.105264 z"/>
		<path d="M 447.72222,52.807016 H 430.13157 V 130 h 17.59065 z"/>
		<path d="m 502.1579,114.09357 c -17.68421,0 -25.45029,-12.35088 -25.45029,-22.736846 0,-10.292397 7.76608,-22.643275 25.45029,-22.643275 8.98245,0 15.15789,4.77193 15.15789,4.77193 l 7.48538,-14.97076 c 0,0 -8.60818,-7.111112 -25.35672,-7.111112 -21.89474,0 -41.82456,17.964913 -41.82456,40.140352 0,22.081871 20.02339,39.859651 41.82456,39.859651 16.74854,0 25.35672,-7.11111 25.35672,-7.11111 l -7.48538,-14.97076 c 0,0 -6.17544,4.77193 -15.15789,4.77193 z"/>
		<path d="m 575.82749,52.807016 h -16.2807 L 528.3889,130 h 18.90058 l 5.7076,-15.4386 H 582.3772 L 588.0848,130 h 18.90059 z m 0.56141,46.31579 h -17.40351 l 8.60818,-22.45614 h 0.18714 z"/>
		<path d="M 632.49562,52.807016 H 614.90498 V 130 h 44.16374 v -15.4386 h -26.5731 z"/>
		<path d="M 703.30409,52.807016 V 130 h 29.28655 c 16,0 25.26316,-8.79532 25.26316,-21.52047 0,-12.444443 -6.83041,-17.777776 -16.46784,-19.461987 6.54971,-3.368421 9.63743,-9.450292 9.63743,-16.561404 0,-14.690058 -10.47953,-19.649123 -23.76608,-19.649123 z m 17.59064,30.222223 V 66.374268 h 1.40351 c 7.67252,0 11.69591,2.339181 11.69591,7.859649 0,6.456141 -4.11696,8.795322 -11.69591,8.795322 z m 0,33.403511 V 98.187134 h 5.52047 c 8.32749,0 12.91228,2.526316 12.91228,9.637426 0,6.08187 -4.58479,8.60819 -12.91228,8.60819 z"/>
		<path d="m 807.99854,52.807016 h -16.2807 L 760.55995,130 h 18.90058 l 5.7076,-15.4386 h 29.38012 L 820.25585,130 h 18.90059 z m 0.56141,46.31579 h -17.40351 l 8.60819,-22.45614 h 0.18713 z"/>
		<path d="M 864.66667,52.807016 H 847.07603 V 130 h 44.16374 v -15.4386 h -26.5731 z"/>
		<path d="M 922.48101,52.807016 H 904.89036 V 130 h 44.16374 v -15.4386 h -26.57309 z"/>
		<path d="M 1003.3713,52.807016 H 987.09064 L 955.93275,130 h 18.90058 l 5.70761,-15.4386 h 29.38016 L 1015.6287,130 h 18.9005 z m 0.5615,46.31579 h -17.40356 l 8.60819,-22.45614 h 0.18713 z"/>
		<path d="M 1042.4488,52.807016 V 130 h 22.3626 c 21.2398,0 38.924,-16.09357 38.924,-38.643276 0,-22.45614 -17.7778,-38.549708 -38.924,-38.549708 z m 17.5907,61.473684 V 68.526315 h 2.7134 c 13.0994,0 21.9883,10.011696 21.9883,22.923977 -0.093,12.912278 -8.9824,22.830408 -21.9883,22.830408 z"/>
		<path d="m 1143.1447,51.403507 c -12.4444,0 -25.1695,9.169591 -25.1695,23.578948 0,8.046784 5.4269,15.251462 14.69,19.836258 9.1696,4.584795 17.4035,7.111107 17.4035,12.725147 0,7.20468 -7.2982,7.57895 -11.1345,7.57895 -8.6082,0 -18.9006,-8.70176 -18.9006,-8.70176 l -8.7953,14.78363 c 0,0 10.9474,10.19883 29.0059,10.19883 15.0643,0 29.0994,-6.45614 29.0994,-24.88889 0,-10.105264 -9.4503,-17.40351 -18.0585,-21.052632 -8.7953,-3.742691 -16.0936,-6.83041 -16.0936,-11.134504 0,-4.210526 3.1813,-6.923976 9.1696,-6.923976 7.9532,0 15.6257,5.333333 15.6257,5.333333 l 7.1112,-14.035088 c 0,0 -9.9182,-7.298246 -23.9533,-7.298246 z"/>
	</g>
	<g aria-label="WILLIAM WORDSWORTH">
		<path d="m 257.94079,290 h 14.59649 l 16.49123,-57.89474 h -14.59649 l -9.89474,39.7193 h -0.35087 l -10.52632,-39.7193 h -9.96491 l -10.52632,39.7193 h -0.35087 l -9.89474,-39.7193 H 208.25658 L 224.74781,290 h 14.66667 l 9.26316,-32.49123 z"/>
		<path d="M 310.38597,232.10526 H 297.19299 V 290 h 13.19298 z"/>
		<path d="M 337.04167,232.10526 H 323.84869 V 290 h 33.12281 v -11.57895 h -19.92983 z"/>
		<path d="M 381.65242,232.10526 H 368.45944 V 290 h 33.12281 v -11.57895 h -19.92983 z"/>
		<path d="M 426.26317,232.10526 H 413.07019 V 290 h 13.19298 z"/>
		<path d="M 469.1294,232.10526 H 456.91887 L 433.55045,290 h 14.17544 l 4.2807,-11.57895 h 22.03509 L 478.32238,290 h 14.17544 z m 0.42105,34.73685 H 456.49782 L 462.95396,250 h 0.14035 z"/>
		<path d="m 547.54714,290 h 13.19299 l -5.19299,-57.89474 h -14.03508 l -12.84211,33.40351 -12.8421,-33.40351 H 501.79276 L 496.59978,290 h 13.19298 l 2.73684,-34.31579 h 0.35088 l 11.85965,33.96491 h 7.85965 l 11.85965,-33.96491 h 0.35087 z"/>
		<path d="m 633.60415,290 h 14.59649 l 16.49123,-57.89474 h -14.59649 l -9.89473,39.7193 h -0.35088 l -10.52632,-39.7193 h -9.96491 l -10.52632,39.7193 h -0.35087 l -9.89474,-39.7193 H 583.91994 L 600.41117,290 h 14.66667 l 9.26316,-32.49123 z"/>
		<path d="m 668.0669,261.01754 c 0,16.91228 12.07017,30.03509 29.19298,30.03509 16.63158,0 29.12281,-13.12281 29.12281,-30.03509 0,-16.91228 -13.05264,-29.96491 -29.12281,-29.96491 -15.92983,0 -29.19298,13.05263 -29.19298,29.96491 z m 14.24561,0 c 0,-8.63157 4.77193,-17.26315 14.94737,-17.26315 10.24561,0 14.87719,8.63158 14.87719,17.26315 0,8.63158 -4.35088,17.26316 -14.87719,17.26316 -10.80702,0 -14.94737,-8.63158 -14.94737,-17.26316 z"/>
		<path d="M 737.20395,232.10526 V 290 h 13.19298 V 267.12281 L 768.08114,290 h 16.77193 l -19.92983,-23.92982 c 7.08772,-2.24562 11.85965,-8.07018 11.85965,-16.77193 0,-11.36842 -8.14035,-17.19299 -18.87719,-17.19299 z m 13.19298,25.68421 v -15.15789 h 1.54386 c 4.98245,0 10.94737,0.35088 10.94737,7.57895 0,7.22807 -5.96492,7.57894 -10.94737,7.57894 z"/>
		<path d="M 792.50546,232.10526 V 290 h 16.77193 c 15.92982,0 29.19298,-12.07018 29.19298,-28.98246 0,-16.8421 -13.33333,-28.91228 -29.19298,-28.91228 z m 13.19298,46.10527 v -34.31579 h 2.03509 c 9.82456,0 16.49123,7.50877 16.49123,17.19298 -0.0702,9.68421 -6.73685,17.12281 -16.49123,17.12281 z"/>
		<path d="m 869.27739,231.05263 c -9.33333,0 -18.87719,6.8772 -18.87719,17.68421 0,6.03509 4.07017,11.4386 11.01754,14.8772 6.87719,3.43859 13.05263,5.33333 13.05263,9.54385 0,5.40351 -5.47368,5.68422 -8.35087,5.68422 -6.45614,0 -14.17544,-6.52632 -14.17544,-6.52632 l -6.59649,11.08772 c 0,0 8.21052,7.64912 21.75438,7.64912 11.29825,0 21.82456,-4.8421 21.82456,-18.66666 0,-7.57895 -7.08772,-13.05264 -13.54386,-15.78948 -6.59649,-2.80702 -12.07017,-5.12281 -12.07017,-8.35088 0,-3.15789 2.38596,-5.19298 6.87719,-5.19298 5.96491,0 11.7193,4 11.7193,4 l 5.33333,-10.52631 c 0,0 -7.43859,-5.47369 -17.96491,-5.47369 z"/>
		<path d="m 938.48352,290 h 14.59649 l 16.49123,-57.89474 h -14.59649 l -9.89474,39.7193 h -0.35088 l -10.52631,-39.7193 h -9.96492 l -10.52631,39.7193 h -0.35088 l -9.89474,-39.7193 H 888.79931 L 905.29054,290 h 14.66666 l 9.26316,-32.49123 z"/>
		<path d="m 972.94626,261.01754 c 0,16.91228 12.07018,30.03509 29.19294,30.03509 16.6316,0 29.1228,-13.12281 29.1228,-30.03509 0,-16.91228 -13.0526,-29.96491 -29.1228,-29.96491 -15.92978,0 -29.19294,13.05263 -29.19294,29.96491 z m 14.24561,0 c 0,-8.63157 4.77193,-17.26315 14.94733,-17.26315 10.2457,0 14.8772,8.63158 14.8772,17.26315 0,8.63158 -4.3508,17.26316 -14.8772,17.26316 -10.80698,0 -14.94733,-8.63158 -14.94733,-17.26316 z"/>
		<path d="M 1042.0833,232.10526 V 290 h 13.193 V 267.12281 L 1072.9605,290 h 16.772 l -19.9299,-23.92982 c 7.0878,-2.24562 11.8597,-8.07018 11.8597,-16.77193 0,-11.36842 -8.1404,-17.19299 -18.8772,-17.19299 z m 13.193,25.68421 v -15.15789 h 1.5439 c 4.9824,0 10.9473,0.35088 10.9473,7.57895 0,7.22807 -5.9649,7.57894 -10.9473,7.57894 z"/>
		<path d="m 1090.9945,243.68421 h 13.7544 V 290 h 13.193 v -46.31579 h 13.7544 v -11.57895 h -40.7018 z"/>
		<path d="m 1154.6403,266.77193 h 18.6667 V 290 h 13.193 v -57.89474 h -13.193 v 23.08772 h -18.6667 v -23.08772 h -13.1929 V 290 h 13.1929 z"/>
	</g>
	<g aria-label="SAMUEL TAYLOR COLERIDGE">
		<path d="m 149.91612,311.05263 c -9.33333,0 -18.87719,6.8772 -18.87719,17.68421 0,6.03509 4.07018,11.4386 11.01754,14.8772 6.8772,3.43859 13.05264,5.33333 13.05264,9.54385 0,5.40351 -5.47369,5.68422 -8.35088,5.68422 -6.45614,0 -14.17544,-6.52632 -14.17544,-6.52632 l -6.59649,11.08772 c 0,0 8.21053,7.64912 21.75438,7.64912 11.29825,0 21.82457,-4.8421 21.82457,-18.66666 0,-7.57895 -7.08772,-13.05264 -13.54386,-15.78948 -6.59649,-2.80702 -12.07018,-5.12281 -12.07018,-8.35088 0,-3.15789 2.38597,-5.19298 6.87719,-5.19298 5.96492,0 11.7193,4 11.7193,4 l 5.33334,-10.52631 c 0,0 -7.4386,-5.47369 -17.96492,-5.47369 z"/>
		<path d="M 210.13542,312.10526 H 197.9249 L 174.55648,370 h 14.17543 l 4.28071,-11.57895 H 215.0477 L 219.32841,370 h 14.17543 z m 0.42106,34.73685 H 197.50384 L 203.95998,330 h 0.14035 z"/>
		<path d="m 288.55319,370 h 13.19298 l -5.19298,-57.89474 H 282.5181 l -12.84211,33.40351 -12.8421,-33.40351 H 242.7988 L 237.60582,370 h 13.19298 l 2.73684,-34.31579 h 0.35088 l 11.85965,33.96491 h 7.85965 l 11.85965,-33.96491 h 0.35087 z"/>
		<path d="m 356.52247,312.10526 h -13.19298 v 33.47369 c 0,9.68421 -2.94737,12.49123 -9.40351,12.49123 -6.45614,0 -9.40351,-2.80702 -9.40351,-12.49123 v -33.47369 h -13.19298 v 37.33334 c 0,14.31579 7.85965,21.61403 22.59649,21.61403 14.73684,0 22.59649,-7.29824 22.59649,-21.61403 z"/>
		<path d="M 402.37445,312.10526 H 369.25164 V 370 h 33.12281 v -11.57895 h -19.92982 v -11.64912 h 19.08772 v -11.57895 h -19.08772 v -11.50877 h 19.92982 z"/>
		<path d="M 428.15187,312.10526 H 414.95889 V 370 h 33.12281 v -11.57895 h -19.92983 z"/>
		<path d="m 476.68257,323.68421 h 13.75438 V 370 h 13.19299 v -46.31579 h 13.75438 v -11.57895 h -40.70175 z"/>
		<path d="M 553.1124,312.10526 H 540.90187 L 517.53345,370 h 14.17544 l 4.2807,-11.57895 h 22.03509 L 562.30538,370 h 14.17544 z m 0.42105,34.73685 H 540.48082 L 546.93696,330 h 0.14035 z"/>
		<path d="m 571.0499,312.10526 21.33333,31.92983 V 370 h 13.19298 v -25.96491 l 21.33334,-31.92983 H 611.0499 l -12.07018,18.52632 -12.07017,-18.52632 z"/>
		<path d="M 647.23082,312.10526 H 634.03784 V 370 h 33.1228 v -11.57895 h -19.92982 z"/>
		<path d="m 676.05209,341.01754 c 0,16.91228 12.07018,30.03509 29.19299,30.03509 16.63158,0 29.1228,-13.12281 29.1228,-30.03509 0,-16.91228 -13.05263,-29.96491 -29.1228,-29.96491 -15.92983,0 -29.19299,13.05263 -29.19299,29.96491 z m 14.24562,0 c 0,-8.63157 4.77193,-17.26315 14.94737,-17.26315 10.24561,0 14.87719,8.63158 14.87719,17.26315 0,8.63158 -4.35088,17.26316 -14.87719,17.26316 -10.80702,0 -14.94737,-8.63158 -14.94737,-17.26316 z"/>
		<path d="M 745.18917,312.10526 V 370 h 13.19299 V 347.12281 L 776.06637,370 h 16.77193 l -19.92983,-23.92982 c 7.08772,-2.24562 11.85965,-8.07018 11.85965,-16.77193 0,-11.36842 -8.14035,-17.19299 -18.87719,-17.19299 z m 13.19299,25.68421 v -15.15789 h 1.54386 c 4.98245,0 10.94736,0.35088 10.94736,7.57895 0,7.22807 -5.96491,7.57894 -10.94736,7.57894 z"/>
		<path d="m 853.29331,358.07018 c -13.26316,0 -19.08772,-9.26316 -19.08772,-17.05264 0,-7.71929 5.82456,-16.98245 19.08772,-16.98245 6.73684,0 11.36842,3.57895 11.36842,3.57895 l 5.61404,-11.22807 c 0,0 -6.45614,-5.33334 -19.01755,-5.33334 -16.42105,0 -31.36842,13.47369 -31.36842,30.10527 0,16.5614 15.01755,29.89473 31.36842,29.89473 12.56141,0 19.01755,-5.33333 19.01755,-5.33333 l -5.61404,-11.22807 c 0,0 -4.63158,3.57895 -11.36842,3.57895 z"/>
		<path d="m 877.7955,341.01754 c 0,16.91228 12.07018,30.03509 29.19299,30.03509 16.63157,0 29.1228,-13.12281 29.1228,-30.03509 0,-16.91228 -13.05263,-29.96491 -29.1228,-29.96491 -15.92983,0 -29.19299,13.05263 -29.19299,29.96491 z m 14.24562,0 c 0,-8.63157 4.77193,-17.26315 14.94737,-17.26315 10.24561,0 14.87719,8.63158 14.87719,17.26315 0,8.63158 -4.35088,17.26316 -14.87719,17.26316 -10.80702,0 -14.94737,-8.63158 -14.94737,-17.26316 z"/>
		<path d="M 960.12556,312.10526 H 946.93258 V 370 h 33.12281 v -11.57895 h -19.92983 z"/>
		<path d="M 1024.6661,312.10526 H 991.5433 V 370 h 33.1228 v -11.57895 h -19.9298 v -11.64912 h 19.0877 v -11.57895 h -19.0877 v -11.50877 h 19.9298 z"/>
		<path d="M 1037.2505,312.10526 V 370 h 13.193 V 347.12281 L 1068.1277,370 h 16.7719 l -19.9298,-23.92982 c 7.0877,-2.24562 11.8597,-8.07018 11.8597,-16.77193 0,-11.36842 -8.1404,-17.19299 -18.8772,-17.19299 z m 13.193,25.68421 v -15.15789 h 1.5439 c 4.9824,0 10.9473,0.35088 10.9473,7.57895 0,7.22807 -5.9649,7.57894 -10.9473,7.57894 z"/>
		<path d="m 1105.7451,312.10526 h -13.193 V 370 h 13.193 z"/>
		<path d="M 1119.2078,312.10526 V 370 h 16.7719 c 15.9298,0 29.193,-12.07018 29.193,-28.98246 0,-16.8421 -13.3333,-28.91228 -29.193,-28.91228 z m 13.193,46.10527 v -34.31579 h 2.0351 c 9.8245,0 16.4912,7.50877 16.4912,17.19298 -0.07,9.68421 -6.7369,17.12281 -16.4912,17.12281 z"/>
		<path d="m 1228.3679,337.57895 h -26.7369 v 10.17544 h 13.3334 c 0,7.08772 -6.2457,11.15789 -12.5614,11.15789 -8.1404,0 -14.7369,-8 -14.7369,-17.82456 0,-10.03509 6.5965,-18.10526 14.7369,-18.10526 5.1228,0 9.5438,2.03508 12.9122,7.43859 l 8.6316,-9.47368 c -5.0526,-6.10526 -12.1403,-9.89474 -22.3158,-9.89474 -16.2807,0 -28.2105,13.40351 -28.2105,30.03509 0,16.5614 12.6316,29.96491 28.2105,29.96491 11.3684,0 23.579,-6.24561 26.7369,-20.91228 z"/>
		<path d="M 1272.2538,312.10526 H 1239.131 V 370 h 33.1228 v -11.57895 h -19.9298 v -11.64912 h 19.0877 v -11.57895 h -19.0877 v -11.50877 h 19.9298 z"/>
	</g>
</svg>
