<?xml version="1.0" encoding="UTF-8"?>
<svg xmlns="http://www.w3.org/2000/svg" xmlns:se="https://standardebooks.org/vocab/1.0" version="1.1" viewBox="0 0 1400 420" se:generated-from="1d610987371ffba6fd782408124db2e6870b1556">
	<path d="M 249.75536,51.404756 232.1642,51.404756 232.1642,128.60001 276.32924,128.60001 276.32924,113.16096 249.75536,113.16096 249.75536,51.404756 Z"/>
	<path d="M 274.24863,51.404756 302.69391,93.979106 302.69391,128.60001 320.28506,128.60001 320.28506,93.979106 348.73034,51.404756 327.58352,51.404756 311.48948,76.107236 295.39545,51.404756 274.24863,51.404756 Z"/>
	<path d="M 356.56815,51.404756 356.56815,128.60001 374.15931,128.60001 374.15931,98.096186 397.73895,128.60001 420.10218,128.60001 393.5283,96.692636 C 402.97887,93.698396 409.34163,85.932086 409.34163,74.329406 409.34163,59.171066 398.48751,51.404756 384.1713,51.404756 L 356.56815,51.404756 Z M 374.15931,85.651376 374.15931,65.440256 376.21785,65.440256 C 382.86132,65.440256 390.81477,65.908106 390.81477,75.545816 390.81477,85.183526 382.86132,85.651376 376.21785,85.651376 L 374.15931,85.651376 Z"/>
	<path d="M 446.23,51.404756 428.63884,51.404756 428.63884,128.60001 446.23,128.60001 446.23,51.404756 Z"/>
	<path d="M 500.66712,112.69311 C 482.98239,112.69311 475.21608,100.34187 475.21608,89.955596 475.21608,79.662896 482.98239,67.311656 500.66712,67.311656 509.64984,67.311656 515.82546,72.083726 515.82546,72.083726 L 523.31106,57.112526 C 523.31106,57.112526 514.70262,50.001206 497.95359,50.001206 476.05821,50.001206 456.1278,67.966646 456.1278,90.142736 456.1278,112.22526 476.15178,130.00356 497.95359,130.00356 514.70262,130.00356 523.31106,122.89224 523.31106,122.89224 L 515.82546,107.92104 C 515.82546,107.92104 509.64984,112.69311 500.66712,112.69311 Z"/>
	<path d="M 574.33872,51.404756 558.05754,51.404756 526.89873,128.60001 545.79987,128.60001 551.50764,113.16096 580.88862,113.16096 586.59639,128.60001 605.49753,128.60001 574.33872,51.404756 Z M 574.90014,97.721906 557.49612,97.721906 566.10456,75.265106 566.2917,75.265106 574.90014,97.721906 Z"/>
	<path d="M 631.00838,51.404756 613.41722,51.404756 613.41722,128.60001 657.58226,128.60001 657.58226,113.16096 631.00838,113.16096 631.00838,51.404756 Z"/>
	<path d="M 701.81865,51.404756 701.81865,128.60001 731.10606,128.60001 C 747.10653,128.60001 756.36996,119.80443 756.36996,107.07891 756.36996,94.634096 749.53935,89.300606 739.90164,87.616346 746.45154,84.247826 749.53935,78.165776 749.53935,71.054456 749.53935,56.363966 739.05951,51.404756 725.77257,51.404756 L 701.81865,51.404756 Z M 719.40981,81.627866 719.40981,64.972406 720.81336,64.972406 C 728.4861,64.972406 732.50961,67.311656 732.50961,72.832286 732.50961,79.288616 728.39253,81.627866 720.81336,81.627866 L 719.40981,81.627866 Z M 719.40981,115.03236 719.40981,96.786206 724.93044,96.786206 C 733.25817,96.786206 737.8431,99.312596 737.8431,106.42392 737.8431,112.50597 733.25817,115.03236 724.93044,115.03236 L 719.40981,115.03236 Z"/>
	<path d="M 806.51603,51.404756 790.23485,51.404756 759.07604,128.60001 777.97718,128.60001 783.68495,113.16096 813.06593,113.16096 818.7737,128.60001 837.67484,128.60001 806.51603,51.404756 Z M 807.07745,97.721906 789.67343,97.721906 798.28187,75.265106 798.46901,75.265106 807.07745,97.721906 Z"/>
	<path d="M 863.18566,51.404756 845.5945,51.404756 845.5945,128.60001 889.75954,128.60001 889.75954,113.16096 863.18566,113.16096 863.18566,51.404756 Z"/>
	<path d="M 921.00152,51.404756 903.41036,51.404756 903.41036,128.60001 947.5754,128.60001 947.5754,113.16096 921.00152,113.16096 921.00152,51.404756 Z"/>
	<path d="M 1001.8941,51.404756 985.61296,51.404756 954.45415,128.60001 973.35529,128.60001 979.06306,113.16096 1008.444,113.16096 1014.1518,128.60001 1033.053,128.60001 1001.8941,51.404756 Z M 1002.4556,97.721906 985.05154,97.721906 993.65998,75.265106 993.84712,75.265106 1002.4556,97.721906 Z"/>
	<path d="M 1040.9726,51.404756 1040.9726,128.60001 1063.3358,128.60001 C 1084.5762,128.60001 1102.261,112.50597 1102.261,89.955596 1102.261,67.498796 1084.4827,51.404756 1063.3358,51.404756 L 1040.9726,51.404756 Z M 1058.5638,112.88025 1058.5638,67.124516 1061.2773,67.124516 C 1074.3771,67.124516 1083.2663,77.136506 1083.2663,90.049166 1083.1727,102.96183 1074.2835,112.88025 1061.2773,112.88025 L 1058.5638,112.88025 Z"/>
	<path d="M 1141.6713,50.001206 C 1129.2265,50.001206 1116.501,59.171066 1116.501,73.580846 1116.501,81.627866 1121.928,88.832756 1131.1915,93.417686 1140.3613,98.002616 1148.5955,100.52901 1148.5955,106.14321 1148.5955,113.3481 1141.297,113.72238 1137.4607,113.72238 1128.8522,113.72238 1118.5595,105.02037 1118.5595,105.02037 L 1109.7639,119.80443 C 1109.7639,119.80443 1120.7116,130.00356 1138.7706,130.00356 1153.8354,130.00356 1167.8709,123.54723 1167.8709,105.11394 1167.8709,95.008376 1158.4203,87.709916 1149.8119,84.060686 1141.0163,80.317886 1133.7179,77.230076 1133.7179,72.925856 1133.7179,68.715206 1136.8992,66.001676 1142.8877,66.001676 1150.8412,66.001676 1158.5139,71.335166 1158.5139,71.335166 L 1165.6252,57.299666 C 1165.6252,57.299666 1155.7068,50.001206 1141.6713,50.001206 Z"/>
	<path d="M 260.42473,288.95001 275.02217,288.95001 291.51447,231.05151 276.91703,231.05151 267.02165,270.77339 266.67075,270.77339 256.14375,231.05151 246.17819,231.05151 235.65119,270.77339 235.30029,270.77339 225.40491,231.05151 210.73729,231.05151 227.22959,288.95001 241.89721,288.95001 251.16097,256.45667 260.42473,288.95001 Z"/>
	<path d="M 312.87299,231.05151 299.67915,231.05151 299.67915,288.95001 312.87299,288.95001 312.87299,231.05151 Z"/>
	<path d="M 339.53011,231.05151 326.33627,231.05151 326.33627,288.95001 359.46123,288.95001 359.46123,277.37031 339.53011,277.37031 339.53011,231.05151 Z"/>
	<path d="M 384.14342,231.05151 370.94958,231.05151 370.94958,288.95001 404.07454,288.95001 404.07454,277.37031 384.14342,277.37031 384.14342,231.05151 Z"/>
	<path d="M 428.75674,231.05151 415.5629,231.05151 415.5629,288.95001 428.75674,288.95001 428.75674,231.05151 Z"/>
	<path d="M 471.62544,231.05151 459.41412,231.05151 436.04418,288.95001 450.22054,288.95001 454.50152,277.37031 476.53804,277.37031 480.81902,288.95001 494.99538,288.95001 471.62544,231.05151 Z M 472.04652,265.79061 458.99304,265.79061 465.4496,248.94741 465.58996,248.94741 472.04652,265.79061 Z"/>
	<path d="M 550.04797,288.95001 563.24181,288.95001 558.04849,231.05151 544.01249,231.05151 531.16955,264.45719 518.32661,231.05151 504.29061,231.05151 499.09729,288.95001 512.29113,288.95001 515.02815,254.63199 515.37905,254.63199 527.23947,288.59911 535.09963,288.59911 546.96005,254.63199 547.31095,254.63199 550.04797,288.95001 Z"/>
	<path d="M 636.247,288.95001 650.84444,288.95001 667.33674,231.05151 652.7393,231.05151 642.84392,270.77339 642.49302,270.77339 631.96602,231.05151 622.00046,231.05151 611.47346,270.77339 611.12256,270.77339 601.22718,231.05151 586.55956,231.05151 603.05186,288.95001 617.71948,288.95001 626.98324,256.45667 636.247,288.95001 Z"/>
	<path d="M 670.71163,259.96567 C 670.71163,276.87905 682.78259,290.00271 699.90651,290.00271 716.53917,290.00271 729.03121,276.87905 729.03121,259.96567 729.03121,243.05229 715.97773,229.99881 699.90651,229.99881 683.97565,229.99881 670.71163,243.05229 670.71163,259.96567 Z M 684.95817,259.96567 C 684.95817,251.33353 689.73041,242.70139 699.90651,242.70139 710.15279,242.70139 714.78467,251.33353 714.78467,259.96567 714.78467,268.59781 710.43351,277.22995 699.90651,277.22995 689.09879,277.22995 684.95817,268.59781 684.95817,259.96567 Z"/>
	<path d="M 739.85284,231.05151 739.85284,288.95001 753.04668,288.95001 753.04668,266.07133 770.73204,288.95001 787.50506,288.95001 767.57394,265.01863 C 774.66212,262.77287 779.43436,256.94793 779.43436,248.24561 779.43436,236.87645 771.29348,231.05151 760.55594,231.05151 L 739.85284,231.05151 Z M 753.04668,256.73739 753.04668,241.57851 754.59064,241.57851 C 759.57342,241.57851 765.53872,241.92941 765.53872,249.15795 765.53872,256.38649 759.57342,256.73739 754.59064,256.73739 L 753.04668,256.73739 Z"/>
	<path d="M 795.15765,231.05151 795.15765,288.95001 811.93067,288.95001 C 827.86153,288.95001 841.12555,276.87905 841.12555,259.96567 841.12555,243.12247 827.79135,231.05151 811.93067,231.05151 L 795.15765,231.05151 Z M 808.35149,277.15977 808.35149,242.84175 810.38671,242.84175 C 820.21191,242.84175 826.87901,250.35101 826.87901,260.03585 826.80883,269.72069 820.14173,277.15977 810.38671,277.15977 L 808.35149,277.15977 Z"/>
	<path d="M 871.93427,229.99881 C 862.60033,229.99881 853.05585,236.87645 853.05585,247.68417 853.05585,253.71965 857.12629,259.12351 864.07411,262.56233 870.95175,266.00115 877.12759,267.89601 877.12759,272.10681 877.12759,277.51067 871.65355,277.79139 868.77617,277.79139 862.31961,277.79139 854.59981,271.26465 854.59981,271.26465 L 848.00289,282.35309 C 848.00289,282.35309 856.21395,290.00271 869.75869,290.00271 881.05767,290.00271 891.58467,285.16029 891.58467,271.33483 891.58467,263.75539 884.49649,258.28135 878.03993,255.54433 871.44301,252.73713 865.96897,250.42119 865.96897,247.19291 865.96897,244.03481 868.35509,241.99959 872.84661,241.99959 878.81191,241.99959 884.56667,245.99985 884.56667,245.99985 L 889.90035,235.47285 C 889.90035,235.47285 882.46127,229.99881 871.93427,229.99881 Z"/>
	<path d="M 941.28167,288.95001 955.87911,288.95001 972.37141,231.05151 957.77397,231.05151 947.87859,270.77339 947.52769,270.77339 937.00069,231.05151 927.03513,231.05151 916.50813,270.77339 916.15723,270.77339 906.26185,231.05151 891.59423,231.05151 908.08653,288.95001 922.75415,288.95001 932.01791,256.45667 941.28167,288.95001 Z"/>
	<path d="M 975.7463,259.96567 C 975.7463,276.87905 987.81726,290.00271 1004.9412,290.00271 1021.5738,290.00271 1034.0659,276.87905 1034.0659,259.96567 1034.0659,243.05229 1021.0124,229.99881 1004.9412,229.99881 989.01032,229.99881 975.7463,243.05229 975.7463,259.96567 Z M 989.99284,259.96567 C 989.99284,251.33353 994.76508,242.70139 1004.9412,242.70139 1015.1875,242.70139 1019.8193,251.33353 1019.8193,259.96567 1019.8193,268.59781 1015.4682,277.22995 1004.9412,277.22995 994.13346,277.22995 989.99284,268.59781 989.99284,259.96567 Z"/>
	<path d="M 1044.8875,231.05151 1044.8875,288.95001 1058.0814,288.95001 1058.0814,266.07133 1075.7667,288.95001 1092.5397,288.95001 1072.6086,265.01863 C 1079.6968,262.77287 1084.469,256.94793 1084.469,248.24561 1084.469,236.87645 1076.3282,231.05151 1065.5906,231.05151 L 1044.8875,231.05151 Z M 1058.0814,256.73739 1058.0814,241.57851 1059.6253,241.57851 C 1064.6081,241.57851 1070.5734,241.92941 1070.5734,249.15795 1070.5734,256.38649 1064.6081,256.73739 1059.6253,256.73739 L 1058.0814,256.73739 Z"/>
	<path d="M 1093.8016,242.63121 1107.5568,242.63121 1107.5568,288.95001 1120.7507,288.95001 1120.7507,242.63121 1134.506,242.63121 1134.506,231.05151 1093.8016,231.05151 1093.8016,242.63121 Z"/>
	<path d="M 1157.4512,265.72043 1176.1191,265.72043 1176.1191,288.95001 1189.3129,288.95001 1189.3129,231.05151 1176.1191,231.05151 1176.1191,254.14073 1157.4512,254.14073 1157.4512,231.05151 1144.2574,231.05151 1144.2574,288.95001 1157.4512,288.95001 1157.4512,265.72043 Z"/>
	<path d="M 150.79552,309.99881 C 141.46158,309.99881 131.9171,316.87645 131.9171,327.68417 131.9171,333.71965 135.98754,339.12351 142.93536,342.56233 149.813,346.00115 155.98884,347.89601 155.98884,352.10681 155.98884,357.51067 150.5148,357.79139 147.63742,357.79139 141.18086,357.79139 133.46106,351.26465 133.46106,351.26465 L 126.86414,362.35309 C 126.86414,362.35309 135.0752,370.00271 148.61994,370.00271 159.91892,370.00271 170.44592,365.16029 170.44592,351.33483 170.44592,343.75539 163.35774,338.28135 156.90118,335.54433 150.30426,332.73713 144.83022,330.42119 144.83022,327.19291 144.83022,324.03481 147.21634,321.99959 151.70786,321.99959 157.67316,321.99959 163.42792,325.99985 163.42792,325.99985 L 168.7616,315.47285 C 168.7616,315.47285 161.32252,309.99881 150.79552,309.99881 Z"/>
	<path d="M 211.01841,311.05151 198.80709,311.05151 175.43715,368.95001 189.61351,368.95001 193.89449,357.37031 215.93101,357.37031 220.21199,368.95001 234.38835,368.95001 211.01841,311.05151 Z M 211.43949,345.79061 198.38601,345.79061 204.84257,328.94741 204.98293,328.94741 211.43949,345.79061 Z"/>
	<path d="M 289.44095,368.95001 302.63479,368.95001 297.44147,311.05151 283.40547,311.05151 270.56253,344.45719 257.71959,311.05151 243.68359,311.05151 238.49027,368.95001 251.68411,368.95001 254.42113,334.63199 254.77203,334.63199 266.63245,368.59911 274.49261,368.59911 286.35303,334.63199 286.70393,334.63199 289.44095,368.95001 Z"/>
	<path d="M 357.41433,311.05151 344.22049,311.05151 344.22049,344.52737 C 344.22049,354.21221 341.27293,357.01941 334.81637,357.01941 328.35981,357.01941 325.41225,354.21221 325.41225,344.52737 L 325.41225,311.05151 312.21841,311.05151 312.21841,348.38727 C 312.21841,362.70399 320.07857,370.00271 334.81637,370.00271 349.55417,370.00271 357.41433,362.70399 357.41433,348.38727 L 357.41433,311.05151 Z"/>
	<path d="M 403.26896,311.05151 370.144,311.05151 370.144,368.95001 403.26896,368.95001 403.26896,357.37031 383.33784,357.37031 383.33784,345.72043 402.4268,345.72043 402.4268,334.14073 383.33784,334.14073 383.33784,322.63121 403.26896,322.63121 403.26896,311.05151 Z"/>
	<path d="M 429.04774,311.05151 415.8539,311.05151 415.8539,368.95001 448.97886,368.95001 448.97886,357.37031 429.04774,357.37031 429.04774,311.05151 Z"/>
	<path d="M 477.58094,322.63121 491.33622,322.63121 491.33622,368.95001 504.53006,368.95001 504.53006,322.63121 518.28534,322.63121 518.28534,311.05151 477.58094,311.05151 477.58094,322.63121 Z"/>
	<path d="M 554.01539,311.05151 541.80407,311.05151 518.43413,368.95001 532.61049,368.95001 536.89147,357.37031 558.92799,357.37031 563.20897,368.95001 577.38533,368.95001 554.01539,311.05151 Z M 554.43647,345.79061 541.38299,345.79061 547.83955,328.94741 547.97991,328.94741 554.43647,345.79061 Z"/>
	<path d="M 571.95374,311.05151 593.28846,342.98341 593.28846,368.95001 606.4823,368.95001 606.4823,342.98341 627.81702,311.05151 611.95634,311.05151 599.88538,329.57903 587.81442,311.05151 571.95374,311.05151 Z"/>
	<path d="M 648.13929,311.05151 634.94545,311.05151 634.94545,368.95001 668.07041,368.95001 668.07041,357.37031 648.13929,357.37031 648.13929,311.05151 Z"/>
	<path d="M 676.9621,339.96567 C 676.9621,356.87905 689.03306,370.00271 706.15698,370.00271 722.78964,370.00271 735.28168,356.87905 735.28168,339.96567 735.28168,323.05229 722.2282,309.99881 706.15698,309.99881 690.22612,309.99881 676.9621,323.05229 676.9621,339.96567 Z M 691.20864,339.96567 C 691.20864,331.33353 695.98088,322.70139 706.15698,322.70139 716.40326,322.70139 721.03514,331.33353 721.03514,339.96567 721.03514,348.59781 716.68398,357.22995 706.15698,357.22995 695.34926,357.22995 691.20864,348.59781 691.20864,339.96567 Z"/>
	<path d="M 746.10332,311.05151 746.10332,368.95001 759.29716,368.95001 759.29716,346.07133 776.98252,368.95001 793.75554,368.95001 773.82442,345.01863 C 780.9126,342.77287 785.68484,336.94793 785.68484,328.24561 785.68484,316.87645 777.54396,311.05151 766.80642,311.05151 L 746.10332,311.05151 Z M 759.29716,336.73739 759.29716,321.57851 760.84112,321.57851 C 765.8239,321.57851 771.7892,321.92941 771.7892,329.15795 771.7892,336.38649 765.8239,336.73739 760.84112,336.73739 L 759.29716,336.73739 Z"/>
	<path d="M 854.21391,357.01941 C 840.94989,357.01941 835.12495,347.75565 835.12495,339.96567 835.12495,332.24587 840.94989,322.98211 854.21391,322.98211 860.95119,322.98211 865.58307,326.56129 865.58307,326.56129 L 871.19747,315.33249 C 871.19747,315.33249 864.74091,309.99881 852.17869,309.99881 835.75657,309.99881 820.80823,323.47337 820.80823,340.10603 820.80823,356.66851 835.82675,370.00271 852.17869,370.00271 864.74091,370.00271 871.19747,364.66903 871.19747,364.66903 L 865.58307,353.44023 C 865.58307,353.44023 860.95119,357.01941 854.21391,357.01941 Z"/>
	<path d="M 878.71735,339.96567 C 878.71735,356.87905 890.78831,370.00271 907.91223,370.00271 924.54489,370.00271 937.03693,356.87905 937.03693,339.96567 937.03693,323.05229 923.98345,309.99881 907.91223,309.99881 891.98137,309.99881 878.71735,323.05229 878.71735,339.96567 Z M 892.96389,339.96567 C 892.96389,331.33353 897.73613,322.70139 907.91223,322.70139 918.15851,322.70139 922.79039,331.33353 922.79039,339.96567 922.79039,348.59781 918.43923,357.22995 907.91223,357.22995 897.10451,357.22995 892.96389,348.59781 892.96389,339.96567 Z"/>
	<path d="M 961.05241,311.05151 947.85857,311.05151 947.85857,368.95001 980.98353,368.95001 980.98353,357.37031 961.05241,357.37031 961.05241,311.05151 Z"/>
	<path d="M 1025.5969,311.05151 992.47191,311.05151 992.47191,368.95001 1025.5969,368.95001 1025.5969,357.37031 1005.6657,357.37031 1005.6657,345.72043 1024.7547,345.72043 1024.7547,334.14073 1005.6657,334.14073 1005.6657,322.63121 1025.5969,322.63121 1025.5969,311.05151 Z"/>
	<path d="M 1038.1818,311.05151 1038.1818,368.95001 1051.3756,368.95001 1051.3756,346.07133 1069.061,368.95001 1085.834,368.95001 1065.9029,345.01863 C 1072.9911,342.77287 1077.7633,336.94793 1077.7633,328.24561 1077.7633,316.87645 1069.6224,311.05151 1058.8849,311.05151 L 1038.1818,311.05151 Z M 1051.3756,336.73739 1051.3756,321.57851 1052.9196,321.57851 C 1057.9024,321.57851 1063.8677,321.92941 1063.8677,329.15795 1063.8677,336.38649 1057.9024,336.73739 1052.9196,336.73739 L 1051.3756,336.73739 Z"/>
	<path d="M 1106.6805,311.05151 1093.4866,311.05151 1093.4866,368.95001 1106.6805,368.95001 1106.6805,311.05151 Z"/>
	<path d="M 1120.1437,311.05151 1120.1437,368.95001 1136.9167,368.95001 C 1152.8476,368.95001 1166.1116,356.87905 1166.1116,339.96567 1166.1116,323.12247 1152.7774,311.05151 1136.9167,311.05151 L 1120.1437,311.05151 Z M 1133.3376,357.15977 1133.3376,322.84175 1135.3728,322.84175 C 1145.198,322.84175 1151.8651,330.35101 1151.8651,340.03585 1151.7949,349.72069 1145.1278,357.15977 1135.3728,357.15977 L 1133.3376,357.15977 Z"/>
	<path d="M 1229.3106,336.52685 1202.572,336.52685 1202.572,346.70295 1215.9062,346.70295 C 1215.9062,353.79113 1209.6602,357.86157 1203.344,357.86157 1195.2031,357.86157 1188.6062,349.86105 1188.6062,340.03585 1188.6062,330.00011 1195.2031,321.92941 1203.344,321.92941 1208.4671,321.92941 1212.8884,323.96463 1216.2571,329.36849 L 1224.8892,319.89419 C 1219.8363,313.78853 1212.7481,309.99881 1202.572,309.99881 1186.2902,309.99881 1174.3596,323.40319 1174.3596,340.03585 1174.3596,356.59833 1186.992,370.00271 1202.572,370.00271 1213.9411,370.00271 1226.1525,363.75669 1229.3106,349.08907 L 1229.3106,336.52685 Z"/>
	<path d="M 1273.199,311.05151 1240.0741,311.05151 1240.0741,368.95001 1273.199,368.95001 1273.199,357.37031 1253.2679,357.37031 1253.2679,345.72043 1272.3569,345.72043 1272.3569,334.14073 1253.2679,334.14073 1253.2679,322.63121 1273.199,322.63121 1273.199,311.05151 Z"/>
</svg>
